<svg width="32" height="32" viewBox="0 0 32 32" fill="none" xmlns="http://www.w3.org/2000/svg">
<g clip-path="url(#clip0_215_2)">
<path d="M13.6479 4.28928C12.8806 3.52495 11.7083 3.34165 10.7443 3.83526C9.78021 4.32886 9.24365 5.38709 9.41518 6.45649L10.4052 12.6286L4.84111 15.4775C3.87707 15.9711 3.3405 17.0294 3.51204 18.0988C3.68357 19.1682 4.5242 20.0055 5.59426 20.1728L11.7703 21.1385L12.7603 27.3106C12.9319 28.38 13.7725 29.2174 14.8425 29.3847C15.9126 29.552 16.9687 29.0113 17.4585 28.0453L20.2854 22.47L26.4615 23.4357C27.5315 23.603 28.5876 23.0622 29.0774 22.0963C29.5672 21.1303 29.3793 19.9588 28.6119 19.1944L24.1831 14.783L27.01 9.20768C27.4998 8.24169 27.3119 7.07018 26.5445 6.30585C25.7772 5.54152 24.6049 5.35822 23.6409 5.85182L18.0768 8.70072L13.6479 4.28928Z" fill="#F3EBD6" stroke="#F3EBD6" stroke-width="5" stroke-linejoin="round"/>
<path d="M24.3423 8.77496C24.1115 8.77496 23.8462 8.77496 23.5462 8.77496C23.2462 8.7524 22.9 8.72984 22.5077 8.70728C21.8385 8.68472 21.2269 8.67343 20.6731 8.67343C20.1192 8.65087 19.75 8.61703 19.5654 8.57191V11.1438C19.2423 11.392 19.0115 11.8883 18.8731 12.6328C18.6885 14.8663 18.5731 16.6599 18.5269 18.0135C18.4808 19.3446 18.4692 20.3824 18.4923 21.1269C18.5154 21.5781 18.5385 21.9616 18.5615 22.2775C18.5846 22.5708 18.6192 22.8077 18.6654 22.9882L19.0462 24.7817L18.8731 25.0525L14.6846 25.9662H14.5808C14.5346 25.9662 14.4769 25.9774 14.4077 26C14.3615 26 14.3154 26 14.2692 26L13.1269 25.2217C13.1269 25.1991 13.1385 25.1878 13.1615 25.1878C13.1846 25.1653 13.2077 25.1314 13.2308 25.0863C13.2538 25.0186 13.2769 24.9171 13.3 24.7817C13.3231 24.6238 13.3346 24.4095 13.3346 24.1387C13.3346 23.9131 13.3346 23.7552 13.3346 23.665C13.3577 23.5747 13.3462 23.4281 13.3 23.225C13.2538 22.9543 13.2538 22.3452 13.3 21.3976C13.3231 20.4501 13.1615 19.9763 12.8154 19.9763C12.8615 19.7281 12.8846 19.4349 12.8846 19.0964C12.9077 18.758 12.9308 18.4422 12.9538 18.1489C12.9769 17.9684 12.9885 17.7992 12.9885 17.6413C12.9885 17.4608 12.9885 17.2803 12.9885 17.0998C13.0115 17.0773 13.0231 17.0547 13.0231 17.0322C13.0462 17.0096 13.0692 16.987 13.0923 16.9645L13.1269 16.9306C13.2423 16.7501 13.3 16.6148 13.3 16.5245C13.3 16.4117 13.3462 16.1636 13.4385 15.78V14.3249C13.8769 14.3926 13.9692 14.0316 13.7154 13.242C13.5077 12.3847 13.4731 11.956 13.6115 11.956C13.6808 11.6627 13.75 11.3243 13.8192 10.9408C13.8654 10.6249 13.9115 10.2865 13.9577 9.92555C14.0038 9.54202 14.05 9.15849 14.0962 8.77496L13.9577 8.67343C13.7962 8.8088 13.6 8.85392 13.3692 8.8088C13.1615 8.76368 12.9654 8.72984 12.7808 8.70728C12.25 8.77496 11.8 8.83136 11.4308 8.87648C11.0615 8.9216 10.7615 9.00056 10.5308 9.11337C10.3923 9.15849 10.2654 9.19233 10.15 9.21489C10.0346 9.23745 9.97692 9.39538 9.97692 9.68866L8.00385 10.0948L7.38077 9.65482C7.28846 9.42922 7.20769 9.21489 7.13846 9.01184C7.06923 8.78624 7.02308 8.51551 7 8.19966L7.41538 7.21827C7.73846 7.17315 7.99231 7.15059 8.17692 7.15059C8.38462 7.15059 8.53462 7.16187 8.62692 7.18443C8.74231 7.18443 8.82308 7.19571 8.86923 7.21827C8.91538 7.24083 8.96154 7.25212 9.00769 7.25212C9.26154 7.13931 9.52692 7.03779 9.80385 6.94755C10.0808 6.83474 10.4038 6.73322 10.7731 6.64298C11.1654 6.55274 11.6154 6.47377 12.1231 6.40609C12.6538 6.31585 13.2885 6.22561 14.0269 6.13536L17.1769 6L17.5231 6.27073C17.6385 6.33841 17.7654 6.40609 17.9038 6.47377C18.0423 6.5189 18.1808 6.54146 18.3192 6.54146C18.4808 6.56402 18.6308 6.50762 18.7692 6.37225C18.8154 6.32713 18.8615 6.25945 18.9077 6.1692C19.0923 6.12408 19.3923 6.12408 19.8077 6.1692C20.2462 6.19177 20.9038 6.27073 21.7808 6.40609C23.3038 6.65426 24.3077 6.78962 24.7923 6.81218L25 7.15059V8.26734L24.3423 8.77496Z" fill="#4146F4"/>
</g>
<defs>
<clipPath id="clip0_215_2">
<rect width="31.88" height="32" fill="white"/>
</clipPath>
</defs>
</svg>
